<svg width="18" height="18" viewBox="0 0 18 18" fill="none" xmlns="http://www.w3.org/2000/svg">
<path d="M15.206 1.25682C15.5966 0.866297 16.2306 0.866297 16.6211 1.25682L16.7431 1.37889C17.1337 1.76942 17.1337 2.40341 16.7431 2.79393L10.5371 8.99999L16.7431 15.206C17.1337 15.5966 17.1337 16.2306 16.7431 16.6211L16.6211 16.7431C16.2306 17.1337 15.5966 17.1337 15.206 16.7431L8.99999 10.5371L2.79393 16.7431C2.40341 17.1337 1.76942 17.1337 1.37889 16.7431L1.25682 16.6211C0.866297 16.2306 0.866297 15.5966 1.25682 15.206L7.46288 8.99999L1.25682 2.79393C0.866297 2.40341 0.866297 1.76942 1.25682 1.37889L1.37889 1.25682C1.76942 0.866297 2.40341 0.866297 2.79393 1.25682L8.99999 7.46288L15.206 1.25682Z" fill="white"/>
</svg>
