<svg width="8" height="11" viewBox="0 0 8 11" fill="none" xmlns="http://www.w3.org/2000/svg">
<path d="M6.50004 6.49998C6.77615 6.22386 7.22389 6.22391 7.50004 6.49998C7.77618 6.77612 7.77618 7.22383 7.50004 7.49998L4.70707 10.2929C4.31654 10.6834 3.68351 10.6834 3.29301 10.2929L0.500038 7.49998C0.223971 7.22383 0.223921 6.77609 0.500038 6.49998C0.776155 6.22386 1.22389 6.22391 1.50004 6.49998L4.00004 8.99998L6.50004 6.49998ZM6.50004 0.499977C6.77615 0.22386 7.22389 0.22391 7.50004 0.499977C7.77618 0.776119 7.77618 1.22383 7.50004 1.49998L4.70707 4.29295C4.31654 4.68339 3.68351 4.68344 3.29301 4.29295L0.500038 1.49998C0.223971 1.22383 0.223921 0.776094 0.500038 0.499977C0.776155 0.22386 1.22389 0.22391 1.50004 0.499977L4.00004 2.99998L6.50004 0.499977Z" fill="#41F6D7"/>
</svg>
